<svg width="22" height="22" viewBox="0 0 22 22" fill="none" xmlns="http://www.w3.org/2000/svg">
<path d="M11.3546 5.6842C8.333 5.6842 5.89574 8.02449 5.89574 10.9259C5.89574 13.8273 8.333 16.1676 11.3546 16.1676C14.3763 16.1676 16.8135 13.8273 16.8135 10.9259C16.8135 8.02449 14.3763 5.6842 11.3546 5.6842ZM11.3546 14.3337C9.40197 14.3337 7.80564 12.8054 7.80564 10.9259C7.80564 9.04637 9.39722 7.51811 11.3546 7.51811C13.312 7.51811 14.9036 9.04637 14.9036 10.9259C14.9036 12.8054 13.3073 14.3337 11.3546 14.3337V14.3337ZM18.3101 5.46979C18.3101 6.14952 17.74 6.69239 17.0368 6.69239C16.3289 6.69239 15.7635 6.14496 15.7635 5.46979C15.7635 4.79462 16.3337 4.24718 17.0368 4.24718C17.74 4.24718 18.3101 4.79462 18.3101 5.46979ZM21.9256 6.71064C21.8448 5.0729 21.4552 3.62219 20.2057 2.42696C18.961 1.23172 17.4501 0.857641 15.7445 0.775525C13.9867 0.679724 8.71783 0.679724 6.95996 0.775525C5.25911 0.853079 3.7483 1.22716 2.49879 2.42239C1.24928 3.61763 0.864447 5.06833 0.77893 6.70608C0.679159 8.39401 0.679159 13.4532 0.77893 15.1412C0.859696 16.7789 1.24928 18.2296 2.49879 19.4248C3.7483 20.6201 5.25436 20.9942 6.95996 21.0763C8.71783 21.1721 13.9867 21.1721 15.7445 21.0763C17.4501 20.9987 18.961 20.6246 20.2057 19.4248C21.4505 18.2296 21.8401 16.7789 21.9256 15.1412C22.0253 13.4532 22.0253 8.39857 21.9256 6.71064V6.71064ZM19.6546 16.9523C19.284 17.8464 18.5666 18.5353 17.6307 18.8956C16.2291 19.4294 12.9034 19.3062 11.3546 19.3062C9.8058 19.3062 6.47536 19.4248 5.07857 18.8956C4.14738 18.5398 3.42998 17.851 3.05465 16.9523C2.49879 15.6065 2.62706 12.4131 2.62706 10.9259C2.62706 9.4387 2.50354 6.24076 3.05465 4.89954C3.42523 4.0054 4.14263 3.31654 5.07857 2.95614C6.48011 2.42239 9.8058 2.54557 11.3546 2.54557C12.9034 2.54557 16.2339 2.42696 17.6307 2.95614C18.5619 3.31198 19.2793 4.00083 19.6546 4.89954C20.2105 6.24532 20.0822 9.4387 20.0822 10.9259C20.0822 12.4131 20.2105 15.611 19.6546 16.9523Z" fill="#607D8B"/>
</svg>
