<svg width="40" height="40" viewBox="0 0 40 40" fill="none" xmlns="http://www.w3.org/2000/svg">
<g clip-path="url(#clip0_139_1024)">
<path d="M29.3557 19.535C31.435 19.7784 33.3177 18.2899 33.5611 16.2103C33.8042 14.1313 32.3159 12.2484 30.2363 12.0052C28.1571 11.7618 26.2743 13.2503 26.0315 15.3298C25.7876 17.4092 27.2765 19.2918 29.3557 19.535Z" fill="#CF9605"/>
<path d="M12.8458 16.4524L18.4843 15.3264L19.6968 17.2764L15.3039 21.4537C15.9822 21.6251 16.6337 21.8802 17.2392 22.214C17.5297 22.3741 17.8019 22.559 18.065 22.7377C18.489 23.0256 18.8879 23.3027 19.2833 23.4113C19.596 23.4971 20.0057 23.502 20.0317 23.5036C20.5886 23.4987 21.0793 23.3438 21.5801 23.0173C22.8827 22.168 24.4814 21.2882 26.4643 21.2011C26.6106 21.1946 26.7585 21.1914 26.9039 21.1914C27.5399 21.1914 28.1619 21.2539 28.7567 21.375C28.3487 20.7236 21.0789 11.914 21.0789 11.914L20.8873 11.6848C20.4181 11.1272 19.633 10.8939 18.9092 11.1592L12.063 13.6703C11.4029 13.9116 10.9988 14.6044 11.1406 15.3149C11.2974 16.0998 12.0609 16.609 12.8458 16.4524Z" fill="#CF9605"/>
<path d="M37.7686 25.211C36.8353 25.6295 36.1397 25.8001 35.3671 25.8001C35.0627 25.8001 34.748 25.7729 34.4045 25.7167C33.2607 25.5127 32.4455 24.8522 31.6569 24.2135C31.172 23.8206 30.7139 23.4495 30.184 23.1763C29.225 22.6791 28.0716 22.4164 26.8477 22.4164C26.7208 22.4164 26.5916 22.4194 26.4639 22.4251C24.7903 22.4985 23.4334 23.243 22.216 24.0366C21.5018 24.5025 20.6547 24.726 19.8859 24.726C19.6541 24.726 19.1822 24.6752 18.876 24.5868C18.2882 24.4173 17.7843 24.0749 17.2969 23.7441C17.0466 23.5739 16.8101 23.4134 16.5712 23.2817C15.5482 22.7177 14.3669 22.4196 13.155 22.4196H13.1305C11.4339 22.4251 9.89951 22.9455 8.69343 23.924C7.014 25.2869 5.90568 25.6699 5.58971 25.7239C5.58971 25.7239 5.32469 25.7931 4.75561 25.7931C3.66545 25.7931 2.75439 25.436 1.83995 25.0384C1.19754 24.759 0.592139 24.5986 0 24.5519C0.114812 24.6182 0.224724 24.6875 0.331341 24.7607C0.795489 25.0842 1.17752 25.4776 1.54679 25.8579C1.74448 26.0614 1.9311 26.2536 2.12939 26.4361C2.9057 27.1503 4.50791 27.9944 6.352 27.9944C7.28773 27.9944 8.19313 27.791 9.04277 27.3895C9.29275 27.2714 9.53615 27.1307 9.79374 26.982C10.2211 26.7353 10.6651 26.4866 11.157 26.321C11.7778 26.1118 12.7414 26.1811 12.7414 26.1811C13.7405 26.2449 14.4887 26.717 15.0289 27.1211C16.6746 28.3522 18.2273 28.9332 19.9153 28.9496L20.0014 28.9501C21.1628 28.9501 22.2254 28.7262 23.1599 28.2848C23.5952 28.079 24.0095 27.7764 24.4484 27.4557C25.2726 26.8536 26.1251 26.2309 27.2228 26.1878C27.2881 26.1852 27.3546 26.1839 27.422 26.1839C28.0231 26.1839 28.9281 26.2883 29.8264 26.7858C30.9077 27.3867 32.2159 28.0007 33.7251 28.0007C33.9445 28.0007 34.1683 27.9879 34.3904 27.9628C35.7798 27.8056 36.954 27.2934 37.8807 26.4404C38.0794 26.2576 38.2664 26.0647 38.4644 25.8606C38.8869 25.4255 39.3235 24.9755 39.875 24.6339C39.9164 24.6081 39.958 24.5832 40 24.5589C39.3333 24.6182 38.6271 24.8261 37.7686 25.211Z" fill="#CF9605"/>
</g>
<defs>
<clipPath id="clip0_139_1024">
<rect width="40" height="40" fill="white"/>
</clipPath>
</defs>
</svg>
