<svg width="22" height="22" viewBox="0 0 22 22" fill="none" xmlns="http://www.w3.org/2000/svg">
<path d="M5.31699 21.1481H1.07842V7.49841H5.31699V21.1481ZM3.19543 5.63646C1.84007 5.63646 0.740723 4.51382 0.740723 3.15843C0.740723 2.50739 0.999342 1.88301 1.45969 1.42266C1.92003 0.9623 2.5444 0.703674 3.19543 0.703674C3.84645 0.703674 4.47082 0.9623 4.93116 1.42266C5.39151 1.88301 5.65013 2.50739 5.65013 3.15843C5.65013 4.51382 4.55033 5.63646 3.19543 5.63646ZM21.1806 21.1481H16.9512V14.5035C16.9512 12.92 16.9192 10.8892 14.7474 10.8892C12.5437 10.8892 12.206 12.6096 12.206 14.3894V21.1481H7.97203V7.49841H12.0372V9.36036H12.0965C12.6624 8.28791 14.0447 7.15614 16.1069 7.15614C20.3966 7.15614 21.1852 9.98101 21.1852 13.6501V21.1481H21.1806Z" fill="#607D8B"/>
</svg>
